<svg xmlns="http://www.w3.org/2000/svg" viewBox="0 0 235.18 186.59"><defs><style>.cls-1{isolation:isolate;}.cls-2{fill:#edeceb;}.cls-10,.cls-13,.cls-2{mix-blend-mode:multiply;}.cls-3{fill:#022333;}.cls-4{fill:#063046;}.cls-5{fill:#2a96a8;}.cls-6{fill:#226f77;}.cls-7{fill:#2a909b;}.cls-8{fill:#1f6568;}.cls-9{fill:#fdb62c;}.cls-10{fill:#49dbd7;}.cls-11{fill:#33b6c4;}.cls-12{fill:#efa92b;}.cls-13{fill:#ccc;}.cls-14{fill:#f98524;}.cls-15{fill:#ffd715;}.cls-16{fill:#ffcc01;}.cls-17{fill:#fcbd11;}.cls-18{fill:#ffdb53;}.cls-19{fill:#e2860c;stroke:#e2860c;stroke-miterlimit:10;}.cls-20{fill:#ff960b;}</style></defs><g class="cls-1"><g id="圖層_2" data-name="圖層 2"><g id="圖層_1-2" data-name="圖層 1"><polygon class="cls-2" points="177.37 142.13 125.08 186.59 12.49 143 47.38 134.51 121.46 175.41 177.37 142.13"/><polygon class="cls-3" points="177.37 142.13 178.54 79.35 105.3 63.49 103.78 172.86 121.51 180.06 177.37 142.13"/><polygon class="cls-4" points="44.84 88.22 48.14 150.25 103.78 172.86 105.3 63.49 44.84 88.22"/><polygon class="cls-5" points="178.54 79.35 122.74 109.46 121.51 180.06 177.37 142.13 178.54 79.35"/><polygon class="cls-6" points="44.84 88.22 48.14 150.25 121.51 180.06 122.74 109.46 44.84 88.22"/><polygon class="cls-7" points="122.09 146.55 122.04 149.79 178.01 107.76 178.07 104.52 122.09 146.55"/><polygon class="cls-7" points="121.97 153.72 121.91 156.96 177.88 114.94 177.94 111.7 121.97 153.72"/><polygon class="cls-7" points="177.81 118.87 121.84 160.89 121.78 164.13 177.75 122.11 177.81 118.87"/><polygon class="cls-7" points="177.37 142.13 177.41 140.4 153.6 158.27 177.37 142.13"/><polygon class="cls-7" points="122.22 139.38 122.16 142.62 178.14 100.58 178.2 97.35 122.22 139.38"/><polygon class="cls-7" points="122.59 117.87 122.54 121.11 177.16 80.09 162.05 88.25 122.59 117.87"/><polygon class="cls-7" points="177.61 129.29 177.67 126.05 121.72 168.06 121.66 171.29 177.61 129.29"/><polygon class="cls-7" points="177.48 136.46 177.54 133.22 121.59 175.23 121.53 178.46 177.48 136.46"/><polygon class="cls-7" points="122.72 110.7 122.66 113.94 143.66 98.17 128.54 106.33 122.72 110.7"/><polygon class="cls-7" points="122.47 125.04 122.41 128.28 178.41 86.23 178.47 83 122.47 125.04"/><polygon class="cls-7" points="122.34 132.21 122.29 135.45 178.28 93.41 178.34 90.17 122.34 132.21"/><polygon class="cls-8" points="122.27 136.54 75.78 96.66 70.03 95.09 122.21 139.85 122.27 136.54"/><polygon class="cls-8" points="122.14 143.88 63.04 93.18 57.29 91.62 122.08 147.19 122.14 143.88"/><polygon class="cls-8" points="122.01 151.22 50.3 89.71 44.84 88.22 44.85 88.4 121.95 154.54 122.01 151.22"/><polygon class="cls-8" points="121.88 158.57 45.08 92.69 45.26 96.21 121.82 161.88 121.88 158.57"/><polygon class="cls-8" points="122.52 121.85 101.26 103.61 95.51 102.04 122.47 125.16 122.52 121.85"/><polygon class="cls-8" points="108.25 105.51 122.59 117.81 122.65 114.5 114 107.08 108.25 105.51"/><polygon class="cls-8" points="122.39 129.19 88.52 100.13 82.77 98.56 122.34 132.5 122.39 129.19"/><polygon class="cls-8" points="70.75 159.44 47.57 139.56 47.76 143.08 63.3 156.41 70.75 159.44"/><polygon class="cls-8" points="87.26 166.15 47.16 131.75 47.34 135.27 79.81 163.12 87.26 166.15"/><polygon class="cls-8" points="48.14 150.25 54.23 152.73 47.99 147.37 48.14 150.25"/><polygon class="cls-8" points="121.75 165.91 45.49 100.5 45.68 104.02 121.7 169.23 121.75 165.91"/><polygon class="cls-8" points="121.63 173.26 45.91 108.31 46.1 111.84 121.57 176.57 121.63 173.26"/><polygon class="cls-8" points="103.78 172.86 46.74 123.94 46.93 127.46 96.33 169.83 103.78 172.86"/><polygon class="cls-8" points="120.29 179.57 46.33 116.12 46.51 119.65 112.84 176.54 120.29 179.57"/><polygon class="cls-9" points="74.46 96.36 78.16 162.37 89.22 166.72 87.57 99.73 74.46 96.36"/><polygon class="cls-10" points="74.46 96.36 78.16 162.37 75.37 161.44 74.46 96.36"/><polygon class="cls-9" points="149.58 94.68 149.07 161.62 157.47 155.25 158.89 89.9 149.58 94.68"/><polygon class="cls-10" points="149.58 94.68 149.07 161.62 146.51 163.35 149.58 94.68"/><polygon class="cls-5" points="201.19 136.44 123.59 76.37 122.83 50.13 122.08 23.69 139.62 6.21 206.88 64.22 222.76 118.29 201.19 136.44"/><polygon class="cls-6" points="201.19 136.44 123.59 76.37 147.35 58.13 222.76 118.29 201.19 136.44"/><polygon class="cls-11" points="147.35 58.13 139.62 6.21 206.88 64.22 222.76 118.29 147.35 58.13"/><polygon class="cls-10" points="122.83 50.13 143.82 33.49 215.28 92.96 143.48 35.18 122.83 50.13"/><polygon class="cls-9" points="143.82 33.49 122.83 50.13 122.48 40.51 142.25 23.67 211.86 80.53 215.28 92.96 143.82 33.49"/><polygon class="cls-10" points="173.92 35.7 181.8 85.38 159.54 104.22 180.44 84.2 173.92 35.7"/><polygon class="cls-9" points="159.54 104.22 181.8 85.38 173.92 35.7 184.79 45.08 192.6 94.19 169.87 112.37 159.54 104.22"/><path class="cls-12" d="M191.84,97.58s-8.36-2.78-11.44.17c-1.33,3.06-4.48,13.17,13.07,26.4s28.7-1,29.6-6.21c-3,2.8-10.06,5.92-12.87,5.29a8.63,8.63,0,0,0,4.41-10s-9.06,15.14-18.67,9S186.25,100.27,191.84,97.58Z"/><path class="cls-13" d="M182.44,67.53S196.22,81.45,195.34,88s-13,4-15.45,9.66a11.83,11.83,0,0,0-.1,9.18,14.17,14.17,0,0,1,.53-9c2.9-1.17,4.88-1.7,11.44-.25.26-.07,9.81-6.87,10-7.49s-.72-5.23-.72-5.23l-6.81-10.36-5.86-3.23Z"/><path class="cls-9" d="M196.73,86.68c.19,8-13.27,4.93-16.45,11.26,5.86-5,20.24,6.37,26.22-4.65,9.05-16.68-18.38-21.68-21-26.92-.49,1.16-.76,1-2.49,1.28C186.25,71.66,196.62,81.82,196.73,86.68Z"/><path class="cls-13" d="M183.46,67.22c10.91,6.87,26.12,4.11,35.29-2.59C202.81,65.35,183.46,67.22,183.46,67.22Z"/><path class="cls-14" d="M183.3,66.91S205.54,82,235.16,52L227,33.88S211.52,62.33,183.3,66.91Z"/><path class="cls-13" d="M183.46,67.22s16.21-18.32,51.72-15C223.74,48.6,200.51,42.15,183.46,67.22Z"/><path class="cls-9" d="M183.46,67.22s2.21-25.42,43.63-33.3a91.42,91.42,0,0,1,8.09,18.3S203,46.34,183.46,67.22Z"/><path class="cls-14" d="M167.3,110.65s1.73-4.59-2.54-9.43c-6.58-7.46-23.56-13.16-31.61,8.07C125.93,128.34,151,137,151,137a14.1,14.1,0,0,0-4.34-9.66c7.77-1,10.76-5.16,10.76-5.16s-8.9-.94-13.53-4.52c-4-3.12-1.78-10.21,3.49-10.45,9.77-.43,6.36,9.24,6.36,9.24Z"/><path class="cls-13" d="M185.55,65.54s-19.47-1.15-33.63,12c-11.46,10.66-7.85,35.6,1.81,38.93-4.51-6.53-8-22.13-3.48-30.06s11.67-15.68,19-17S185.55,65.54,185.55,65.54Z"/><path class="cls-9" d="M184.6,67.84s-22.38,3.47-26.35,16.49,4.89,23.84,8.93,26.48c-4.38,6.54-13.45,5.68-13.45,5.68s-12.22-9.34-5.94-29.59,37.76-21.36,37.76-21.36Z"/><path class="cls-13" d="M183.68,67.7s7.95-7.13,8.11-17.35C190.23,57.81,185.61,65.91,183.68,67.7Z"/><path class="cls-13" d="M176.29,36.8S182.9,51,183.72,65.36C187.57,60.09,182,38.86,176.29,36.8Z"/><path class="cls-14" d="M183.67,67.71s20.87-19.12-2.88-55.83L160.2,16.06S185.76,38.13,183.67,67.71Z"/><path class="cls-13" d="M160.26,16s-7.62,32.7,20.81,50.15c-8.94-27-3.18-42.07-.06-54.13C175.39,11.82,160.26,16,160.26,16Z"/><path class="cls-9" d="M183.68,67.7s-25.3-8-23.42-51.71a99.32,99.32,0,0,1,20.79-4.09S166.89,43.25,183.68,67.7Z"/><path class="cls-13" d="M184.9,65.25c3.49.62,2.57,4.21-1.67,3S180.59,64.5,184.9,65.25Z"/><path class="cls-9" d="M184.76,65.23c2.84.51,2,4.11-1.46,3.07S181.25,64.61,184.76,65.23Z"/><circle class="cls-15" cx="79.94" cy="61.76" r="27.52"/><circle class="cls-16" cx="79.94" cy="61.76" r="23.36"/><path class="cls-17" d="M91.33,41.33A23.36,23.36,0,0,1,60.8,75.12,23.36,23.36,0,1,0,91.33,41.33Z"/><path class="cls-18" d="M60.78,64.69A20.62,20.62,0,0,1,97.19,50.6,20.62,20.62,0,1,0,64,74.85,20.56,20.56,0,0,1,60.78,64.69Z"/><path class="cls-19" d="M70.21,61.47c-.31-7.57,4.65-12.18,10.47-12.42a9.75,9.75,0,0,1,6.76,2.4L85.58,54A6.77,6.77,0,0,0,81,52.22c-4.14.17-7,3.86-6.79,9.09s3.21,8.58,7.39,8.41a8.06,8.06,0,0,0,5.26-2.48l1.78,2.48a11,11,0,0,1-7.24,3.19C75.35,73.16,70.53,69,70.21,61.47Z"/><path class="cls-9" d="M33.81,76.35c-2,.87-4,.89-5.32,0-.91-.62-2.27-2.19-1.29-5.73A9.76,9.76,0,0,1,32,64.44a16.1,16.1,0,0,1,6.81-1.76,19.61,19.61,0,0,0-.84-4c-1.17-3.69-3.58-5.52-7.16-5.44a13.9,13.9,0,0,0-3.86.71c.42,5.68-2.15,12.52-5.62,15.69-2.44,2.23-5.18,2.62-7.71,1.09a4.59,4.59,0,0,1-2-5.53c1.16-4.37,7-10,13.17-12.55a9.38,9.38,0,0,0-.71-2.21C22.89,48,20.63,47,17.36,47.5,3.51,49.77,2.05,61,2,61.49a1,1,0,0,1-2-.22C0,61.13,1.65,48,17,45.53c4.13-.68,7.27.75,8.85,4a10.85,10.85,0,0,1,.81,2.39,15.17,15.17,0,0,1,4.11-.71c4.44-.11,7.68,2.32,9.11,6.83a21.79,21.79,0,0,1,.94,4.59,38.08,38.08,0,0,1,9.44,1.44A1,1,0,1,1,49.72,66a36.81,36.81,0,0,0-8.8-1.35,13.43,13.43,0,0,1-5.16,10.56A10,10,0,0,1,33.81,76.35Zm0-10.55c-.27.12-.54.25-.8.39a7.71,7.71,0,0,0-3.87,4.93c-.28,1-.59,2.8.49,3.54s3.14.28,4.95-1.06a11.39,11.39,0,0,0,4.34-8.92A15.22,15.22,0,0,0,33.8,65.8ZM25,54.69c-5.39,2.4-10.46,7.28-11.45,11A2.64,2.64,0,0,0,14.7,69c1.75,1.06,3.54.77,5.32-.85C22.92,65.49,25.14,59.58,25,54.69Z"/><polygon class="cls-20" points="111.07 21.25 110.89 1 119.44 3.49 111.07 21.25"/><path class="cls-20" d="M110,35c-1.43,4.91,4.87,6.76,6.31,1.84S111.4,30,110,35Z"/><path class="cls-9" d="M81.79,22.93a3.21,3.21,0,0,1-.8-.11c-2.76-.71-5.44-4.94-6-9.35-2.45.6-4.29,2.81-5.36,6.44a1,1,0,0,1-1.92-.57c1.72-5.85,5.07-7.47,7.15-7.89,0-3.39,1.35-8.55,8.34-11.38a1,1,0,0,1,.75,1.86c-5.81,2.35-7,6.54-7.09,9.39a9.69,9.69,0,0,1,7.28,4.23,5.25,5.25,0,0,1,.27,5.85A3,3,0,0,1,81.79,22.93Zm-4.85-9.6c.59,4,3,7.16,4.55,7.56.35.09.77.09,1.19-.57a3.4,3.4,0,0,0-.27-3.69A7.76,7.76,0,0,0,76.94,13.33Z"/></g></g></g></svg>