<svg xmlns="http://www.w3.org/2000/svg" viewBox="0 0 114.32 114.32"><defs><style>.cls-1{fill:#ffd715;}.cls-2{fill:#ffcc01;}.cls-3{fill:#fcbd11;}.cls-4{fill:#ffdb53;}.cls-5{fill:#e2860c;stroke:#e2860c;stroke-miterlimit:10;}</style></defs><g id="圖層_2" data-name="圖層 2"><g id="圖層_1-2" data-name="圖層 1"><circle class="cls-1" cx="57.16" cy="57.16" r="57.16"/><circle class="cls-2" cx="57.16" cy="57.16" r="48.51"/><path class="cls-3" d="M82.54,15.76A48.52,48.52,0,0,1,16.28,83.24,48.52,48.52,0,1,0,82.54,15.76Z"/><path class="cls-4" d="M17.15,61.6A42.82,42.82,0,0,1,93.92,35.5,42.83,42.83,0,1,0,22.84,82.94,42.6,42.6,0,0,1,17.15,61.6Z"/><path class="cls-5" d="M37,55.73C37,40,47.69,30.85,59.78,30.85c6.18,0,10.44,2.61,13.83,5.57l-4.09,5.22c-2.78-2.44-5.65-4.18-9.39-4.18-8.61,0-14.87,7.4-14.87,18.27s5.91,18.09,14.61,18.09A16.63,16.63,0,0,0,71,69.12l3.48,5.31a22.92,22.92,0,0,1-15.31,6C46.65,80.43,37,71.38,37,55.73Z"/></g></g></svg>