<?xml version="1.0" encoding="utf-8"?>
<!-- Generator: Adobe Illustrator 25.0.0, SVG Export Plug-In . SVG Version: 6.00 Build 0)  -->
<svg version="1.1" id="圖層_1" xmlns="http://www.w3.org/2000/svg" xmlns:xlink="http://www.w3.org/1999/xlink" x="0px" y="0px"
	 viewBox="0 0 257 377" style="enable-background:new 0 0 257 377;" xml:space="preserve">
<style type="text/css">
	.st0{fill:#FF969A;}
	.st1{fill:none;stroke:#FFD2D9;stroke-width:4;stroke-miterlimit:10;}
	.st2{fill:#FFD2D9;}
	.st3{fill:#97B2FF;}
</style>
<path class="st0" d="M101.5,191c50,0,90.5-40.5,90.5-90.5c0-50-40.5-90.5-90.5-90.5C51.5,10,11,50.5,11,100.5
	C11,150.5,51.5,191,101.5,191z"/>
<path d="M97.1,77.3c1.6,2,1.2,4.9-0.9,6.5c-2,1.5-5,1.1-6.5-0.9c-1.4-2-1-4.8,0.9-6.4C92.6,74.9,95.5,75.3,97.1,77.3z"/>
<path d="M56.2,70.9c-1.6-2-1.3-4.9,0.7-6.5c2-1.6,4.9-1.2,6.5,0.8c1.5,2,1.2,4.8-0.7,6.4C60.7,73.2,57.8,72.9,56.2,70.9z"/>
<path d="M105.5,76.2c-0.7,1.5-1.3,2-2.5,0.9c-2.7-2.3-5.4-4.5-8.1-6.9c-0.4-0.3-0.3-1.1-0.4-1.7c0.6-0.1,1.4-0.4,1.7-0.1
	C99.4,71,102.4,73.6,105.5,76.2z"/>
<path d="M54.7,58.5c4.2-0.8,8.1-1.6,12.2-2.3c0.3-0.1,1.1,0.6,1.2,0.9c0,0.4-0.5,1.1-0.9,1.2c-3.6,0.8-7.2,1.5-10.8,2.2
	C54.8,60.8,54.8,59.9,54.7,58.5z"/>
<path d="M75.6,91.5c-0.5,1.8-0.9,3.6-1.5,5.1c-0.8,1.9-2.4,2.8-4.5,2.8c-2.1,0-3.6-1-4.5-2.9c-1.1-2.4-1-5-0.5-7.7
	c0.9,0.3,1.6,0.7,2.3,0.8c2.2,0.3,4.5,0.7,6.8,0.6c2-0.1,2.1-0.7,1.3-2.8c-3,1.5-6,1-8.8-0.6c-1.2-0.7-2-0.5-2.8,0.5
	c-1.9,2.1-1.8,8,0.2,11c1.9,2.9,5.1,4,8.4,3C76,100.1,77.3,96.8,75.6,91.5z"/>
<path class="st1" d="M47.5,88.6c16.8,0,30.3-13.6,30.3-30.3S64.3,27.9,47.5,27.9S17.2,41.5,17.2,58.3S30.7,88.6,47.5,88.6z"/>
<path class="st1" d="M111.7,114.1c16.8,0,30.3-13.6,30.3-30.3s-13.6-30.3-30.3-30.3C95,53.4,81.4,67,81.4,83.7S95,114.1,111.7,114.1
	z"/>
<path class="st2" d="M73.5,73.1c2.3,1.7,5,3,7.8,3.7c0.9,0.2,1.8,0.1,2.6-0.3c0.7-0.4,1.4-1.2,1.6-2c0.2-0.9,0.2-1.8-0.3-2.6
	c-0.5-0.7-1.2-1.3-2-1.6c-1-0.2-1.9-0.6-2.9-1c0.3,0.1,0.5,0.2,0.8,0.3c-1.5-0.6-2.8-1.4-4.1-2.4c-0.7-0.5-1.9-0.6-2.6-0.3
	c-0.8,0.2-1.6,0.8-2,1.6c-0.4,0.8-0.6,1.7-0.3,2.6c0.1,0.3,0.2,0.5,0.3,0.8C72.6,72.4,73,72.8,73.5,73.1z"/>
<path class="st2" d="M21.7,40.6c-0.7,0.5-1.4,1.1-2.1,1.6c-0.2,0.2-0.3,0.3-0.3,0.5c-0.1,0.2-0.2,0.4-0.1,0.7c0,0.2,0,0.5,0.1,0.7
	c0.1,0.2,0.2,0.4,0.3,0.5c0.3,0.3,0.7,0.5,1.2,0.5c0.1,0,0.3,0,0.5-0.1c0.3-0.1,0.5-0.2,0.7-0.4c0.7-0.5,1.4-1.1,2.1-1.6
	c0.2-0.2,0.3-0.3,0.3-0.5c0.1-0.2,0.2-0.4,0.1-0.7c0-0.2,0-0.5-0.1-0.7c-0.1-0.2-0.2-0.4-0.3-0.5c-0.3-0.3-0.7-0.5-1.2-0.5
	c-0.1,0-0.3,0-0.5,0.1C22.2,40.3,21.9,40.4,21.7,40.6z"/>
<path class="st2" d="M19.9,41.7c1.4,2.5,3.3,4.8,5.6,6.6c0.4,0.3,0.7,0.5,1.2,0.5c0.4,0,0.9-0.2,1.2-0.5c0.6-0.6,0.7-1.8,0-2.4
	c-1-0.9-2-1.8-2.9-2.9c-0.1-0.1-0.2-0.2-0.3-0.4c-0.1-0.1-0.1-0.1-0.2-0.2c-0.1-0.2,0,0,0.1,0.1c-0.2-0.3-0.4-0.5-0.6-0.8
	c-0.4-0.6-0.8-1.2-1.1-1.8c-0.4-0.8-1.6-1.1-2.3-0.6C19.7,39.8,19.4,40.8,19.9,41.7z"/>
<path class="st2" d="M138.1,101.6c14.3,18.4,28.7,36.9,43,55.3c1.3,1.7,3.7-0.7,2.4-2.4c-14.3-18.4-28.7-36.9-43-55.3
	C139.1,97.5,136.7,99.9,138.1,101.6z"/>
<path class="st3" d="M149.4,367.5c-51.9,0-94-43.9-94-98c0-54.1,42.1-98,94-98c51.9,0,94,43.9,94,98
	C243.4,323.6,201.3,367.5,149.4,367.5z"/>
<path d="M100.8,270.4c3.5,5.5,7.9,9.7,14.7,9.9c4.2,0.1,8-1.2,11.3-3.9c1.2-1,2.2-1.2,3.4-0.3c0.4,0.3,1,0.5,1.4,0.5
	c0.8,0,1.5-0.3,2.3-0.4c-0.5-0.6-1-1.4-1.6-1.6c-2.7-0.9-4-2.6-3.6-5.6c0.1-0.6-0.4-1.2-0.7-1.8c-0.5,0.5-1.1,0.9-1.4,1.5
	c-0.3,0.6-0.3,1.5-0.1,2.1c1,2.6-0.7,3.7-2.4,4.9c-7.3,4.7-16.6,2.3-20.8-5.5c-0.4-0.8-0.2-2-0.1-2.9c0.1-0.9,0.7-1.7,0.8-2.5
	c0.1-0.6-0.4-1.3-0.6-2c-0.4,0.4-1.1,0.8-1.3,1.3c-0.8,3.2-2.6,4.8-5.9,4.1c-0.4-0.1-0.9,0.5-1.4,0.8c0.4,0.4,0.7,1.2,1.1,1.2
	C97.4,270.4,99,270.3,100.8,270.4z"/>
<path d="M98.4,252.5c-1.3-3-4.4-4.4-7.3-3.1c-2.9,1.3-4.2,4.9-2.9,7.8c1.3,2.9,4.6,4.2,7.4,2.9C98.5,258.8,99.7,255.4,98.4,252.5z"
	/>
<path d="M139.7,266.2c2.8-1.4,4-4.8,2.7-7.7c-1.3-3-4.8-4.2-7.6-2.7c-2.7,1.4-3.8,4.9-2.5,7.8C133.6,266.4,136.9,267.6,139.7,266.2z
	"/>
</svg>
