<?xml version="1.0" encoding="utf-8"?>
<!-- Generator: Adobe Illustrator 25.0.0, SVG Export Plug-In . SVG Version: 6.00 Build 0)  -->
<svg version="1.1" id="圖層_1" xmlns="http://www.w3.org/2000/svg" xmlns:xlink="http://www.w3.org/1999/xlink" x="0px" y="0px"
	 viewBox="0 0 411.7 436.2" style="enable-background:new 0 0 411.7 436.2;" xml:space="preserve">
<g>
	<path d="M70.3,424.1c-7.3-2.1-14.1-4.8-19.7-10.2c-18.1-17.8-13.1-48,9.9-58.6c2.6-1.2,3.4-2.5,3.4-5.3c-0.1-11.8-0.1-23.6,0-35.4
		c0.1-32.9,27.4-60.2,60.2-60.2c39.8,0,122.7,0,162.5,0c18,0,32.2-10.8,36.4-27.6c0.7-2.5,1.1-5,1.1-7.5c0.1-22.7,0.1-45.3,0.1-67.9
		L298,177.7l-17.2-17.2l55.6-55.6l55.5,55.6l-16.4,16.4l-26.2-26.4l-0.9,0.5v4.3c0,21.1,0,42.1,0,63.2c-0.1,33.2-26.9,60-60.1,60.1
		c-39.3,0-121.6,0-160.9,0c-23.5,0-39.3,15.8-39.3,39.4c0,11.9,0,23.9,0,35.9c10.9,4.3,18.6,11.7,22.4,22.8
		c6.8,20.1-5.5,41.9-26.2,46.8c-0.9,0.2-1.8,0.6-2.6,0.9L70.3,424.1z"/>
	<path d="M116.1,112.4l27.2-27.1L116,58.2l17.3-17.3l27,27.2l27.3-27.4c5.9,5.9,11.5,11.5,17.3,17.3l-27.3,27l27.4,27.3l-17.3,17.3
		l-26.9-27.3l-27.3,27.4L116.1,112.4z"/>
	<path d="M47.2,182.2l-27.5-27.4L36.5,138l26.6,26.8l27.5-27.6l17.1,17.2L80.9,181l27.6,27.5l-17.2,17.1l-26.6-26.7l-27.4,27.5
		L20,209.2L47.2,182.2z"/>
	<path d="M355.3,307.2l17.3,17.3l-26.3,27.1l26.3,27.3l-17.3,17.3l-27.2-27.3l-27.2,27.3l-17.3-17.3l27.3-27.2l-27.4-27.2l17.3-17.3
		l27.2,27.3L355.3,307.2z"/>
	<path d="M336.4,84.4c-20,0-36.2-16.3-36.1-36.3c0-20,16.3-36.2,36.3-36.1c20,0,36.2,16.3,36.1,36.3c0,19.9-16,36.1-35.9,36.1
		C336.6,84.4,336.5,84.4,336.4,84.4z"/>
</g>
</svg>
