<svg id="圖層_1" data-name="圖層 1" xmlns="http://www.w3.org/2000/svg" viewBox="0 0 411.7 436.17"><path d="M104.9,410.09c-6.75-1.91-13.13-4.46-18.29-9.53C69.8,384,74.46,355.92,95.84,346.06c2.45-1.12,3.17-2.37,3.14-4.93-.13-11-.08-21.95,0-32.93.08-30.56,25.49-56,56-56,37,0,74.09,0,111.14,0,16.74,0,29.9-10.06,33.85-25.67a29.27,29.27,0,0,0,1.05-7c.08-21.07.05-42.15.05-63.11l-24.44,24.53-16-16,51.74-51.74L364,164.87l-15.27,15.25-24.4-24.54-.88.44V160q0,29.38,0,58.76a56,56,0,0,1-55.88,55.87q-54.82,0-109.65,0c-21.86,0-36.53,14.69-36.57,36.6,0,11.09,0,22.19,0,33.4,10.1,4,17.32,10.92,20.81,21.21,6.33,18.67-5.12,39-24.35,43.49-.83.19-1.63.53-2.44.8Z"/><path d="M147.47,120.24,172.8,95.08l-25.46-25.3,16.09-16.11L188.54,79l25.35-25.45c5.51,5.5,10.68,10.68,16.09,16.09L204.63,94.73l25.51,25.36L214.05,136.2,189,110.86l-25.38,25.48Z"/><path d="M83.41,185.11,57.82,159.6l15.61-15.55,24.76,24.88,25.53-25.66,15.88,16L114.75,184l25.66,25.56-16,15.91L99.65,200.63l-25.52,25.6-16-16Z"/><path d="M326.25,301.33l16.1,16.06L316.93,342.6l25.48,25.34L326.33,384l-25.25-25.37-25.32,25.42L259.69,368l25.38-25.27-25.44-25.28,16.06-16.08L301,326.76Z"/><path d="M312.17,94.19A33.67,33.67,0,1,1,345.92,60.6,33.51,33.51,0,0,1,312.17,94.19Z"/></svg>