<?xml version="1.0" encoding="utf-8"?>
<!-- Generator: Adobe Illustrator 25.0.0, SVG Export Plug-In . SVG Version: 6.00 Build 0)  -->
<svg version="1.1" id="圖層_1" xmlns="http://www.w3.org/2000/svg" xmlns:xlink="http://www.w3.org/1999/xlink" x="0px" y="0px"
	 viewBox="0 0 411.7 436.2" style="enable-background:new 0 0 411.7 436.2;" xml:space="preserve">
<g>
	<path d="M13.6,335.2V101c0.8-3.5,1.4-7,2.3-10.5c8.7-32.3,29.1-53.1,61.4-62C84,26.8,91,25.9,98,26c71.8-0.2,143.7-0.1,215.5,0.1
		c9,0,17.9,1.4,26.5,4.1c35.9,11.8,58,43.3,58.1,81c0,71.3,0,142.7,0,214c0,4-0.3,8-0.7,12c-4,33.4-29,61.9-61.7,70.3
		c-4.2,1.1-8.4,1.9-12.6,2.9H88.7c-0.8-0.3-1.6-0.6-2.4-0.8c-33.6-4.6-61.1-28.9-69.8-61.7C15.4,343.7,14.6,339.5,13.6,335.2z
		 M206,49.9c-35.2,0-70.3,0-105.5,0c-4.5,0-9,0.3-13.4,1.1c-29.8,5.8-49.5,30-49.5,60.9c-0.1,70.8-0.1,141.6,0,212.4
		c0,4.1,0.3,8.3,1,12.3c5.7,29.8,29.9,49.6,60.7,49.6c70.9,0.1,141.9,0.1,212.9,0c4.1,0,8.3-0.3,12.3-1.1
		c29.7-5.8,49.4-29.9,49.5-60.5c0.1-71.1,0-142.1-0.1-213.2c0-7-1.1-13.9-3.3-20.6c-8.4-25.4-31-41-58.4-41
		C276.8,49.9,241.4,49.8,206,49.9z"/>
	<path d="M170,122.2h143.7v23.6H170V122.2z"/>
	<path d="M313.9,206.3v23.5H170.1v-23.5H313.9z"/>
	<path d="M313.8,290.5V314H170v-23.5H313.8z"/>
	<path d="M145.8,133.9c0,4,0,8,0,12c-0.1,7-5,12.1-12,12.1c-8,0.1-16,0.1-24,0c-6.5,0.2-11.8-5-12-11.4c0-0.2,0-0.4,0-0.6
		c-0.1-8-0.1-16,0-24c0.1-6.9,5.1-11.9,12.2-12c7.9-0.1,15.7-0.1,23.6,0c7.2,0,12.2,5,12.2,12.3C145.8,126.1,145.8,130,145.8,133.9z
		"/>
	<path d="M121.4,242.1c-4,0-8,0.1-12,0c-6.4,0-11.6-5.2-11.7-11.7c-0.1-8.2-0.1-16.5,0-24.7c0.1-6.4,5.3-11.6,11.8-11.6
		c8.1-0.1,16.2-0.1,24.4,0c6.5-0.1,11.8,5.1,11.9,11.6c0,0.1,0,0.2,0,0.3c0.1,8.1,0.1,16.2,0,24.4c0,6.5-5.2,11.8-11.7,11.8
		c-0.1,0-0.2,0-0.3,0C129.7,242.2,125.5,242.1,121.4,242.1z"/>
	<path d="M121.7,326.2c-4,0-8,0-12,0c-6.5,0.1-11.9-5-12-11.5c0-0.2,0-0.4,0-0.6c-0.1-8-0.1-16,0-24c-0.1-6.5,5-11.8,11.5-11.9
		c0.1,0,0.2,0,0.3,0c8.1-0.1,16.2-0.1,24.4,0c6.5-0.1,11.8,5.1,11.8,11.6c0,0.1,0,0.2,0,0.3c0.1,8.1,0.1,16.2,0,24.4
		c0,6.4-5.2,11.7-11.6,11.7C130,326.3,125.9,326.2,121.7,326.2z"/>
</g>
</svg>
