<svg id="圖層_1" data-name="圖層 1" xmlns="http://www.w3.org/2000/svg" viewBox="0 0 411.7 436.17"><defs><style>.cls-1{fill:#fff;}</style></defs><path d="M398.91,143.25v16.47l-1.47,6.05c-7.14,29.59-25,49.62-54.59,57-29.17,7.24-54-1.92-73.8-24.61-.93-1.07-1.83-2.19-2.8-3.35-15,19.5-34.13,30.16-58.54,30.16S164,214,149.28,194.8c-23.49,28.34-52.62,36.54-87.43,25.34a12.33,12.33,0,0,0-.21,1.53q0,76,0,152c0,4.53,1.07,5.42,5.62,5.42H145.1c1,0,1.91-.17,3.1-.28V277.55c0-10.55,5.27-15.78,15.92-15.78h86.45c10.51,0,15.77,5.34,15.77,16q0,48.27,0,96.56v4.77h80.75c4.84,0,5.61-.78,5.73-5.64,0-1.12,0-2.25,0-3.37q0-52.21,0-104.43a44.6,44.6,0,0,1,.11-4.48c.77-7.62,6.79-13,14-12.65a13.5,13.5,0,0,1,13.11,13.65c.06,37.81.12,75.61,0,113.41a30.17,30.17,0,0,1-19.77,27.85c-1.83.68-3.69,1.27-5.53,1.91H59.82c-.17-.17-.32-.44-.52-.5-17.17-5-24.88-15.18-24.88-33q0-83.1,0-166.21a13.65,13.65,0,0,0-2.67-9,80.56,80.56,0,0,1-6.65-10.81c-8.28-15.4-12.16-31.73-8-49,7.35-30.72,15.08-61.34,23-91.93C43.75,30.55,55.5,22,70.4,22H343.61c15.69,0,27.21,8.79,31.09,23.94,5.16,20.12,10.17,40.28,15.19,60.43C393,118.64,395.91,131,398.91,143.25ZM253,48.47H163.24c-.06,1.12-.14,2-.14,2.84,0,33.41,0,66.83.07,100.24a53.54,53.54,0,0,0,1.52,11.81c5.94,25.46,31.73,40.55,56.25,33,18.3-5.6,32-23.92,32-43.37.1-33.79,0-67.58,0-101.37ZM136,48.2H72.71c-5.54,0-6.22.56-7.6,6q-9.68,38.52-19.39,77c-2.48,9.71-4.53,19.33-2.46,29.47,6.45,31.62,42.74,47.63,70.12,30.68,15.24-9.44,22.54-23.55,22.62-41.3.14-32.68,0-65.36,0-98Zm143.51,0c-.11,1-.23,1.62-.23,2.22,0,33.93-.31,67.86.1,101.78.31,25.49,19.75,45,44.8,46,29.1,1.17,53.35-26.42,47-54.91-6.78-30.56-15-60.82-22.53-91.21-.67-2.66-2.39-3.91-5.16-3.88-4.62.05-9.23,0-13.85,0ZM175.75,289.35v89.43h63.09V289.35Z"/><path class="cls-1" d="M398.91,143.25c-3-12.3-6-24.61-9-36.89-5-20.15-10-40.31-15.19-60.43C370.82,30.78,359.3,22,343.61,22H70.4c-14.9,0-26.65,8.56-30.33,22.9-7.87,30.59-15.6,61.21-22.95,91.93-4.14,17.28-.26,33.61,8,49a80.56,80.56,0,0,0,6.65,10.81,13.65,13.65,0,0,1,2.67,9q-.09,83.1,0,166.21c0,17.79,7.71,28,24.88,33,.2.06.35.33.52.5H14.92q0-192,0-384h384Z"/></svg>