<?xml version="1.0" encoding="utf-8"?>
<!-- Generator: Adobe Illustrator 25.0.0, SVG Export Plug-In . SVG Version: 6.00 Build 0)  -->
<svg version="1.1" id="圖層_1" xmlns="http://www.w3.org/2000/svg" xmlns:xlink="http://www.w3.org/1999/xlink" x="0px" y="0px"
	 viewBox="0 0 431.1 436.2" style="enable-background:new 0 0 431.1 436.2;" xml:space="preserve">
<path d="M419.9,214.9c-0.6,1.6-1,3.3-1.7,4.9c-3.3,7.5-9,12.3-17.3,12.7c-8.5,0.4-17,0.2-25.5,0.3c-1.7,0-3.4,0-5.8,0
	c0,1.9,0,3.4,0,4.9c0,53.2,0,106.5,0,159.7c0,10.6-4.2,14.8-14.7,14.8c-31.8,0-63.6,0-95.4,0c-10,0-14.3-4.3-14.3-14.3
	c0-31.3,0-62.5,0-93.8c0-1.6,0-3.2,0-5.1c-19.7,0-39.2,0-59.3,0c0,1.4,0,3,0,4.5c0,31.4,0,62.8,0,94.2c0,10.3-4.3,14.5-14.5,14.5
	c-31.8,0-63.6,0-95.4,0c-10.2,0-14.4-4.3-14.4-14.6c0-53.2,0-106.5,0-159.7c0-1.6,0-3.1,0-5.2c-6.7,0-12.9,0-19.1,0
	c-3.5,0-6.9,0.1-10.4-0.1c-9.4-0.4-16.4-5.2-19.3-13.5c-3.2-8.8-1.1-16.6,5.7-22.9c9.4-8.8,19-17.4,28.6-26.1
	C97.6,124,148.2,77.9,198.9,31.7c4.2-3.8,8.6-7.1,14.5-7.6c7-0.6,12.7,2,17.7,6.7c12.2,11.2,24.4,22.2,36.6,33.4
	c1,0.9,2,1.7,3.8,3.3c0-2.7,0-4.6,0-6.5c0.2-7.2,5-12.1,12.1-12.1c27.5-0.1,55.1-0.1,82.6,0c7.5,0,12.1,5,12.1,12.9
	c0,33,0.1,66,0,99c0,3,0.8,5.1,3.1,7.2c8.9,7.8,17.4,16,26.4,23.8c5.4,4.7,10.2,9.7,12.1,16.8C419.9,210.6,419.9,212.8,419.9,214.9z
	 M268.9,388.1c25.9,0,51.2,0,76.8,0c0-2,0-3.7,0-5.5c0-53,0-105.9,0-158.9c0-10.5,4.2-14.7,14.8-14.7c8.5,0,17,0,25.5,0
	c1.3,0,2.7-0.1,4.9-0.3c-10.7-9.7-20.4-18.8-30.4-27.6c-4.3-3.8-6.2-8.2-6.2-14c0.1-29.9,0.1-59.9,0.1-89.8c0-1.5,0-3,0-4.5
	c-20.1,0-39.5,0-59.3,0c0,6.6-0.1,12.9,0,19.3c0.1,5.8-1.5,10.7-7.1,13.2c-5.7,2.6-10.4,0.4-14.8-3.6c-18-16.6-36.2-33-54.3-49.5
	c-1.1-1-2.4-2-3.7-3.2C157,102.1,98.9,155.1,40,208.7c2.4,0.1,3.7,0.3,5,0.3c8.5,0,17,0,25.5,0c10.6,0,14.8,4.2,14.8,14.7
	c0,53.1,0,106.2,0,159.3c0,1.7,0,3.4,0,5c25.9,0,51.2,0,76.8,0c0-1.9,0-3.5,0-5.1c0-31.4,0-62.8,0-94.2c0-9.4,4.5-13.9,13.9-13.9
	c26.2,0,52.4,0,78.6,0c10,0,14.3,4.3,14.3,14.3c0,31.3,0,62.5,0,93.8C268.9,384.6,268.9,386.1,268.9,388.1z"/>
</svg>
