<?xml version="1.0" encoding="utf-8"?>
<!-- Generator: Adobe Illustrator 25.0.0, SVG Export Plug-In . SVG Version: 6.00 Build 0)  -->
<svg version="1.1" id="圖層_1" xmlns="http://www.w3.org/2000/svg" xmlns:xlink="http://www.w3.org/1999/xlink" x="0px" y="0px"
	 viewBox="0 0 411.7 436.2" style="enable-background:new 0 0 411.7 436.2;" xml:space="preserve">
<path d="M14.2,231.6v-27.7c0.8-5.9,1.5-11.8,2.5-17.6c6.5-37.7,22.6-70.7,48.8-98.6C94.5,56.6,130,37,172,29.5
	c6.7-1.2,13.5-2,20.3-3h26.9c1.1,0.3,2.2,0.6,3.3,0.7c18,1.4,35.7,5.5,52.5,12.1C360.2,73,409.7,159.4,394.9,249.5
	c-6.2,38-22.4,71.5-49,99.3c-47.1,49.1-104.9,68.4-172,58.3c-34.6-5.2-65.3-19.9-91.9-42.7c-34.7-29.8-56.6-67.1-64.8-112.2
	C16,245.4,15.2,238.5,14.2,231.6z M321,341.4c49.2-44.9,69.7-120.3,40.3-189.4C331.5,81.7,258,40.2,182.9,50.6
	C105.7,61.2,45.7,123.2,37.6,200.8c-3.8,35.7,3.5,69.4,21.2,100.7c8.4,15,19.2,28.6,31.9,40.2c11.5-36.6,34.6-62.2,69.1-77.8
	c-43.1-29.7-47.9-85.5-19.9-121c28.4-36,79.1-43,115.6-15.7c18.7,14,30.2,32.8,32.9,56.1c3.9,33.9-9.3,60.6-36.6,80.7
	C288.7,282.1,302,297,321,341.4z M205.8,387.4l11.6-0.8c29.6-1.9,56.7-11.3,81.5-27.4c2-1.3,2.3-2.6,1.9-4.6
	c-9.7-50.3-60.7-85-111.5-75.7c-39.4,7.2-69.3,35.9-78.2,75c-0.6,2.7,0,4.2,2.4,5.8C141.5,377.9,172.4,386.9,205.8,387.4
	L205.8,387.4z M205.8,133.3c-33.6,0-60.8,27.1-60.8,60.7s27.1,60.8,60.7,60.8c33.5,0,60.8-27.1,60.8-60.7
	c0.2-33.4-26.8-60.7-60.2-60.8C206.1,133.4,206,133.4,205.8,133.3L205.8,133.3z"/>
</svg>
