<svg id="圖層_1" data-name="圖層 1" xmlns="http://www.w3.org/2000/svg" viewBox="0 0 411.7 436.17"><defs><style>.cls-1{fill:#fff;}</style></defs><path class="cls-1" d="M13.59,335.24c1,4.21,1.83,8.44,2.9,12.62a83.89,83.89,0,0,0,69.81,61.7,13,13,0,0,1,2.39.76H13.59Z"/><path d="M50.45,413.31c-2-.55-4-1.07-6-1.65a40.88,40.88,0,0,1-29-38.68q-.06-136.77,0-273.56c0-22.72,17.86-40.49,41.64-40.62,53.78-.28,107.56-.11,161.34-.06,7.34,0,12.59,3.67,14.44,9.58a13.35,13.35,0,0,1-5.34,15.37A20.62,20.62,0,0,1,221,86a24.3,24.3,0,0,1-5.2.16H58.92c-8.39,0-13.45,3.11-15.41,9.63a19.42,19.42,0,0,0-.63,5.49q0,134.75,0,269.47c0,10,5.12,15.11,15.14,15.11H299.83c10.18,0,15.27-5.16,15.27-15.39q0-66.35,0-132.68c0-9.13,5.55-15.28,13.67-15.31A13.66,13.66,0,0,1,342.52,235c0,.37,0,.74,0,1.12,0,46.09.15,92.18-.1,138.27-.1,18.14-14.44,34.44-32.49,38.13a21.55,21.55,0,0,0-2.39.79Z"/><path d="M397,90.52c-.68,2.61-1.3,5.23-2,7.82a53.07,53.07,0,0,1-14.06,23.32q-88.67,88.67-177.39,177.26a23.39,23.39,0,0,1-8.74,5.35Q156.14,317.43,117.3,330a20.86,20.86,0,0,1-10.85.56c-7.11-1.73-11-9.59-8.59-16.94q13.42-40.92,27.28-81.7a19.46,19.46,0,0,1,4.74-7q88.45-88.62,177-177.17c29.11-29.25,76.64-16.66,88,21.12.81,2.7,1.44,5.45,2.15,8.18ZM132.66,295.77a28.56,28.56,0,0,0,2.82-.55c16-5.33,31.93-10.63,47.85-16.08A12.57,12.57,0,0,0,187.8,276q86.3-86.25,172.52-172.56a42.76,42.76,0,0,0,4.22-4.71c5.67-7.74,6.75-16.19,2.85-24.91S356.29,60,346.58,59.22c-8.69-.73-15.46,3.16-21.45,9.16Q242.89,150.76,160.4,232.91c-7.16,7.11-12.32,14.69-15.1,24.42C141.66,270,137.08,282.47,132.66,295.77Z"/></svg>