<?xml version="1.0" encoding="utf-8"?>
<!-- Generator: Adobe Illustrator 25.0.0, SVG Export Plug-In . SVG Version: 6.00 Build 0)  -->
<svg version="1.1" id="圖層_1" xmlns="http://www.w3.org/2000/svg" xmlns:xlink="http://www.w3.org/1999/xlink" x="0px" y="0px"
	 viewBox="0 0 411.7 436.2" style="enable-background:new 0 0 411.7 436.2;" xml:space="preserve">
<path d="M398.9,147.6v16.5l-1.5,6.1c-7.1,29.6-25,49.6-54.6,57c-29.2,7.2-54-1.9-73.8-24.6c-0.9-1.1-1.8-2.2-2.8-3.4
	c-15,19.5-34.1,30.2-58.5,30.2s-43.7-11-58.4-30.2c-23.5,28.3-52.6,36.5-87.4,25.3c-0.1,0.5-0.2,1-0.2,1.5c0,50.7,0,101.3,0,152
	c0,4.5,1.1,5.4,5.6,5.4h77.8c1,0,1.9-0.2,3.1-0.3V281.9c0-10.5,5.3-15.8,15.9-15.8h86.4c10.5,0,15.8,5.3,15.8,16
	c0,32.2,0,64.4,0,96.6v4.8h80.8c4.8,0,5.6-0.8,5.7-5.6c0-1.1,0-2.2,0-3.4c0-34.8,0-69.6,0-104.4c0-1.5,0-3,0.1-4.5
	c0.8-7.6,6.8-13,14-12.6c7.4,0.2,13.2,6.3,13.1,13.6c0.1,37.8,0.1,75.6,0,113.4c-0.2,12.5-8.1,23.5-19.8,27.9
	c-1.8,0.7-3.7,1.3-5.5,1.9H59.8c-0.2-0.2-0.3-0.4-0.5-0.5c-17.2-5-24.9-15.2-24.9-33c0-55.4,0-110.8,0-166.2c0.2-3.2-0.7-6.4-2.7-9
	c-2.5-3.4-4.7-7-6.6-10.8c-8.3-15.4-12.2-31.7-8-49c7.4-30.7,15.1-61.3,23-91.9c3.7-14.5,15.4-23,30.3-23h273.2
	c15.7,0,27.2,8.8,31.1,23.9c5.2,20.1,10.2,40.3,15.2,60.4C393,123,395.9,135.4,398.9,147.6z M253,52.9h-89.8c-0.1,1.1-0.1,2-0.1,2.8
	c0,33.4,0,66.8,0.1,100.2c0.1,4,0.6,7.9,1.5,11.8c5.9,25.5,31.7,40.6,56.2,33c18.3-5.6,32-23.9,32-43.4c0.1-33.8,0-67.6,0-101.4
	L253,52.9z M136,52.6H72.7c-5.5,0-6.2,0.6-7.6,6c-6.5,25.7-12.9,51.3-19.4,77c-2.5,9.7-4.5,19.3-2.5,29.5
	c6.5,31.6,42.7,47.6,70.1,30.7c15.2-9.4,22.5-23.6,22.6-41.3c0.1-32.7,0-65.4,0-98v-3.9H136z M279.5,52.6c-0.1,1-0.2,1.6-0.2,2.2
	c0,33.9-0.3,67.9,0.1,101.8c0.3,25.5,19.8,45,44.8,46c29.1,1.2,53.4-26.4,47-54.9c-6.8-30.6-15-60.8-22.5-91.2
	c-0.7-2.7-2.4-3.9-5.2-3.9c-4.6,0-9.2,0-13.9,0L279.5,52.6z M175.8,293.8v89.4h63.1v-89.4H175.8z"/>
</svg>
