<?xml version="1.0" encoding="utf-8"?>
<!-- Generator: Adobe Illustrator 25.0.0, SVG Export Plug-In . SVG Version: 6.00 Build 0)  -->
<svg version="1.1" id="圖層_1" xmlns="http://www.w3.org/2000/svg" xmlns:xlink="http://www.w3.org/1999/xlink" x="0px" y="0px"
	 viewBox="0 0 411.7 436.2" style="enable-background:new 0 0 411.7 436.2;" xml:space="preserve">
<g>
	<path d="M5.9,102.5c0.7-3.4,1.3-6.9,2.2-10.2c6.1-22.5,26-38,49.3-38.1c29.3-0.2,58.6-0.1,87.9,0c7.9,0,13,4.7,13.1,11.8
		c0,7.1-5.4,12.2-13.3,12.2c-28.4,0-56.8,0.3-85.1-0.1c-15.9-0.2-29.8,11.2-29.8,29.6c0,85.4-0.1,170.8,0,256.2
		c0,17.5,12.1,29.3,29.5,29.3c92,0,184.1,0,276.1,0c17.8,0,29.5-11.8,29.5-29.7c0-28.2,0-56.5-0.1-84.7c0-4.8,1.4-8.7,5.3-11.5
		c3.8-2.7,7.9-3.2,12.1-0.9c4.4,2.4,6.7,6,6.7,11c0,19.7,0,39.3,0,59c0,10,0,20,0,30.1c-0.2,24.7-19.1,46.3-43.5,50.1
		c-0.6,0.1-1.1,0.5-1.7,0.8c-97.4,0-194.8,0-292.1,0c-0.7-0.3-1.4-0.6-2.2-0.8c-19-3.4-32.3-14-39.7-31.6c-2.1-5-2.9-10.7-4.2-16
		C5.9,280,5.9,191.2,5.9,102.5z"/>
	<path d="M349.6,18.9c11.1,0.3,21.1,3.8,29.4,11.4c4.9,4.5,9.6,9.2,14.2,14c16.8,17.8,16.8,43.7,0.3,61.8c-1.1,1.2-2.3,2.4-3.5,3.6
		c-57.3,57.3-114.7,114.7-172,172.1c-3.2,3.2-6.8,5.3-11.2,6.5c-25.8,7-51.6,14.2-77.4,21.4c-0.9,0.2-1.8,0.5-2.6,0.7
		c-8.2,1.9-14.4-4.2-12.2-12.3c7.6-27.8,15.2-55.6,23.1-83.4c0.6-2.2,2.2-4.4,3.9-6.1c58.5-58.6,117-117.1,175.6-175.7
		C325.9,23.9,336.7,19.2,349.6,18.9z M353.1,117.9c-15.5-15.5-31-31-46-46c-48,48-96.4,96.4-144.2,144.2
		c15.1,15.1,30.6,30.6,46,45.9C256.9,214.2,305.1,165.9,353.1,117.9z M368.5,103.2c3.4-3.4,7.3-6.9,10.7-10.8
		c9.4-10.7,9.1-24.4-0.6-34.8c-3.7-4-7.6-7.9-11.6-11.6c-9-8.3-21.1-10-30.7-3.4c-5.6,3.8-10.2,9.1-15,13.4
		C337.3,72,352.8,87.5,368.5,103.2z M152,235.6c-4.7,16.9-9.3,33.8-14.2,51.4c17.8-4.9,34.6-9.6,51.3-14.3
		C176.6,260.2,164.4,248,152,235.6z"/>
</g>
</svg>
