<svg id="圖層_1" data-name="圖層 1" xmlns="http://www.w3.org/2000/svg" viewBox="0 0 411.7 436.17"><path d="M20.17,225.87v-27.7c.83-5.88,1.49-11.79,2.5-17.64,6.54-37.67,22.63-70.69,48.76-98.63C100.52,50.81,136,31.25,178,23.76c6.72-1.2,13.51-2,20.27-3h26.94a22.09,22.09,0,0,0,3.26.71A179.77,179.77,0,0,1,281,33.58c85.21,33.64,134.63,120.12,119.9,210.18-6.21,38-22.37,71.47-49,99.27-47.11,49.13-104.87,68.37-172,58.31-34.61-5.19-65.33-19.9-91.93-42.7-34.72-29.76-56.56-67.09-64.75-112.19C22,239.63,21.16,232.73,20.17,225.87ZM327,335.66c49.18-44.94,69.68-120.31,40.31-189.44C337.49,76,264,34.43,188.89,44.84A169.35,169.35,0,0,0,43.6,195.05c-3.75,35.72,3.46,69.37,21.17,100.67a162.47,162.47,0,0,0,31.89,40.22c11.53-36.65,34.58-62.25,69.14-77.76-43.12-29.72-47.88-85.53-19.87-121,28.38-36,79.15-43,115.57-15.74,18.75,14,30.22,32.85,32.92,56.12,3.94,33.88-9.27,60.59-36.59,80.73C294.69,276.34,308,291.3,327,335.66Zm-115.2,46,11.56-.76c29.6-1.89,56.66-11.28,81.48-27.43,2-1.27,2.27-2.59,1.88-4.63-9.66-50.34-60.7-85-111.54-75.73-39.45,7.19-69.35,35.94-78.21,75.05-.62,2.74,0,4.23,2.4,5.76C147.51,372.15,178.36,381.15,211.8,381.7Zm0-254.09a60.76,60.76,0,1,0,60.7,60.86A60.52,60.52,0,0,0,211.8,127.61Z"/></svg>