<?xml version="1.0" encoding="utf-8"?>
<!-- Generator: Adobe Illustrator 25.0.0, SVG Export Plug-In . SVG Version: 6.00 Build 0)  -->
<svg version="1.1" id="圖層_1" xmlns="http://www.w3.org/2000/svg" xmlns:xlink="http://www.w3.org/1999/xlink" x="0px" y="0px"
	 viewBox="0 0 129.7 90" style="enable-background:new 0 0 129.7 90;" xml:space="preserve">
<style type="text/css">
	.st0{fill:#C1D4E2;}
	.st1{display:none;fill:none;stroke:#00314C;stroke-miterlimit:10;}
</style>
<path class="st0" d="M63,47.2c0,1.7,0,3.5-0.2,5c-0.3,1.9,0.1,2.3,1.9,1.6c1.5-0.5,2.8-0.6,4.2,0.4c1.1,0.9,1.4,2,1.7,3.2
	c0.1,0.4,0.1,1.1,0.5,1.2c0.4,0.1,0.8-0.5,1.1-0.8c2.4-3.1,4.6-6.4,7-9.5c2-2.5,4.2-4.9,7.2-6.4c1.1-0.6,2.1-0.7,3.1,0.1
	c1.1,0.9,1.6,2.1,1.4,3.6c-0.7,4.8-1.3,9.7-2,14.5c-0.1,0.4,0,1.2,0.4,1.4c0.5,0.2,1.1-0.3,1.4-0.7c2.1-3,4.2-6.1,6.1-9.2
	c1.9-3,3.5-6.2,5.2-9.4c1.7-3,3.3-6,4.9-9c0.6-1.1,1.3-2.2,2.1-3.2c1-1.2,2.3-1.3,3.4-0.4c1.2,0.9,1.6,2.3,0.9,3.6
	c-1.2,2.3-2.5,4.5-3.8,6.7c-3.3,5.6-6.7,11.1-10.1,16.7c-2,3.3-4.1,6.4-7.2,8.9c-2.7,2.1-5.3,2.2-7-0.1c-0.8-1.1-1.4-2.7-1.4-4.1
	c0-2.8,0.5-5.6,0.7-8.3c0.1-0.7,0.4-1.8-0.2-2.1c-0.6-0.3-1.3,0.5-1.7,1c-3.5,4.6-6.9,9.2-10.3,13.9c-1.2,1.6-2.1,3.4-3.2,5
	c-0.5,0.7-1.3,1.4-2.1,1.7c-1.8,0.6-3.1-1.1-2.7-3.2c0.5-2.8,0.9-5.5,1.3-8.3c0.1-0.5,0.2-1.4-0.2-1.6c-0.5-0.3-1.1,0.3-1.5,0.7
	c-2.8,2.4-4.8,5.4-6.4,8.7c-0.7,1.4-1.5,2.7-2.3,4.1c-0.8,1.3-2,1.7-3.1,1.1c-1.4-0.7-2.1-2-1.5-3.5c0.6-1.4,1.4-2.8,2.1-4.2
	c2.3-4.8,4.2-9.8,4.8-15.1c0.3-2.1,0.2-5,0-6.6c-0.1-0.7-0.6-1.6-1.6-1.7c-1,0-1.4,0.7-1.6,1.6c-1.7,5.6-3.4,11.3-5.3,16.9
	c-1.4,4.2-3.5,8.2-6.2,11.7c-4.1,5.3-9.5,8.7-16.2,9.3c-6.4,0.6-11.5-2.3-13-9c-0.8-3.7-0.2-7.4,0.7-11c1.6-6.4,4.6-12.3,8.1-17.9
	c5.7-9,12.5-17,20.4-24.2c4.3-3.9,8.9-7.8,14.4-10c2.3-0.9,4.4-1.5,6.9-1.6c6.1-0.2,12.1,5.1,10.5,16.1c-0.1,0.8-1.5,1.2-2.5,1
	c-0.7-0.2-1.1-1.1-1-2.1c0.3-4.1,0.5-11.8-7.7-11.1c-5,0.4-8.8,4.2-12.6,7.3c-8.9,7.4-16.2,16.1-22.3,26c-3.6,5.8-6.5,11.9-7.9,18.6
	c-0.6,2.9-1,5.8-0.4,8.8c0.4,1.8,1.7,2.8,3.6,3c8,1,13.3-3.2,16.7-9.4c2.3-4.3,3.6-8.9,5-13.6c1.1-3.5,2.1-7.1,3.3-10.6
	c1.2-3.9,3.4-5.5,6.9-5.8c3.6-0.4,6.7,2.4,7.5,6.1C63,44.5,63,45.7,63,47.2"/>
<path class="st1" d="M63,47.2c0,1.7,0,3.5-0.2,5c-0.3,1.9,0.1,2.3,1.9,1.6c1.5-0.5,2.8-0.6,4.2,0.4c1.1,0.9,1.4,2,1.7,3.2
	c0.1,0.4,0.1,1.1,0.5,1.2c0.4,0.1,0.8-0.5,1.1-0.8c2.4-3.1,4.6-6.4,7-9.5c2-2.5,4.2-4.9,7.2-6.4c1.1-0.6,2.1-0.7,3.1,0.1
	c1.1,0.9,1.6,2.1,1.4,3.6c-0.7,4.8-1.3,9.7-2,14.5c-0.1,0.4,0,1.2,0.4,1.4c0.5,0.2,1.1-0.3,1.4-0.7c2.1-3,4.2-6.1,6.1-9.2
	c1.9-3,3.5-6.2,5.2-9.4c1.7-3,3.3-6,4.9-9c0.6-1.1,1.3-2.2,2.1-3.2c1-1.2,2.3-1.3,3.4-0.4c1.2,0.9,1.6,2.3,0.9,3.6
	c-1.2,2.3-2.5,4.5-3.8,6.7c-3.3,5.6-6.7,11.1-10.1,16.7c-2,3.3-4.1,6.4-7.2,8.9c-2.7,2.1-5.3,2.2-7-0.1c-0.8-1.1-1.4-2.7-1.4-4.1
	c0-2.8,0.5-5.6,0.7-8.3c0.1-0.7,0.4-1.8-0.2-2.1c-0.6-0.3-1.3,0.5-1.7,1c-3.5,4.6-6.9,9.2-10.3,13.9c-1.2,1.6-2.1,3.4-3.2,5
	c-0.5,0.7-1.3,1.4-2.1,1.7c-1.8,0.6-3.1-1.1-2.7-3.2c0.5-2.8,0.9-5.5,1.3-8.3c0.1-0.5,0.2-1.4-0.2-1.6c-0.5-0.3-1.1,0.3-1.5,0.7
	c-2.8,2.4-4.8,5.4-6.4,8.7c-0.7,1.4-1.5,2.7-2.3,4.1c-0.8,1.3-2,1.7-3.1,1.1c-1.4-0.7-2.1-2-1.5-3.5c0.6-1.4,1.4-2.8,2.1-4.2
	c2.3-4.8,4.2-9.8,4.8-15.1c0.3-2.1,0.2-5,0-6.6c-0.1-0.7-0.6-1.6-1.6-1.7c-1,0-1.4,0.7-1.6,1.6c-1.7,5.6-3.4,11.3-5.3,16.9
	c-1.4,4.2-3.5,8.2-6.2,11.7c-4.1,5.3-9.5,8.7-16.2,9.3c-6.4,0.6-11.5-2.3-13-9c-0.8-3.7-0.2-7.4,0.7-11c1.6-6.4,4.6-12.3,8.1-17.9
	c5.7-9,12.5-17,20.4-24.2c4.3-3.9,8.9-7.8,14.4-10c2.3-0.9,4.4-1.5,6.9-1.6c6.1-0.2,12.1,5.1,10.5,16.1c-0.1,0.8-1.5,1.2-2.5,1
	c-0.7-0.2-1.1-1.1-1-2.1c0.3-4.1,0.5-11.8-7.7-11.1c-5,0.4-8.8,4.2-12.6,7.3c-8.9,7.4-16.2,16.1-22.3,26c-3.6,5.8-6.5,11.9-7.9,18.6
	c-0.6,2.9-1,5.8-0.4,8.8c0.4,1.8,1.7,2.8,3.6,3c8,1,13.3-3.2,16.7-9.4c2.3-4.3,3.6-8.9,5-13.6c1.1-3.5,2.1-7.1,3.3-10.6
	c1.2-3.9,3.4-5.5,6.9-5.8c3.6-0.4,6.7,2.4,7.5,6.1C63,44.5,63,45.7,63,47.2z"/>
</svg>
